# xmcd CD database file
#
# Track frame offsets:
#	182
#	13277
#	28105
#	42422
#	57307
#	70635
#	85447
#	99635
#	114912
#	128192
#	141477
#	154875
#	168702
#	180930
#	195090
#	208810
#	221122
#	235310
#	248820
#	263737
#	278590
#	295295
#	309495
#
# Disc length: 4322 seconds
#
# Revision: 9
# Processed by: cddbd v1.5.2PL0 Copyright (c) Steve Scherf et al.
# Submitted via: CDex 1.51
#
DISCID=5710e017
DTITLE=Duke Ellington - Vol. 046 - Duke Ellington and his Famous Orchestra - 1932-1941
DYEAR=1988
DGENRE=Jazz
TTITLE0=Take the "A" train
TTITLE1=Don't get around much any more (never no lament)
TTITLE2=Cotton Tail (Shuckin' And Stiffin')
TTITLE3=I got it bad and that ain't good
TTITLE4=Conga brava
TTITLE5=Concerto for Cootie (do nothin' till you hear from me)
TTITLE6=A portrait of Bert Williams
TTITLE7=Warm Valley
TTITLE8=Solitude
TTITLE9=Country gal
TTITLE10=Prelude to a kiss
TTITLE11=I let a song go out of my heart
TTITLE12=Diminuendo in blue
TTITLE13=Crescendo in blue
TTITLE14=Echoes of Harlem (Cootie's concerto)
TTITLE15=Caravan
TTITLE16=Clarinet lament (Barney's concerto)
TTITLE17=Merry-go-round
TTITLE18=In a sentimental mood
TTITLE19=Live and love tonight
TTITLE20=Sophisticated lady
TTITLE21=Harlem speaks
TTITLE22=Slippery horn
EXTD=YEAR: 1988
EXTT0=
EXTT1=
EXTT2=
EXTT3=
EXTT4=
EXTT5=
EXTT6=
EXTT7=
EXTT8=
EXTT9=
EXTT10=
EXTT11=
EXTT12=
EXTT13=
EXTT14=
EXTT15=
EXTT16=
EXTT17=
EXTT18=
EXTT19=
EXTT20=
EXTT21=
EXTT22=
PLAYORDER=
